<svg width="14" height="9" viewBox="0 0 14 9" fill="none" xmlns="http://www.w3.org/2000/svg">
<path d="M1.37508 3.66665C1.0299 3.66665 0.750082 3.94647 0.750082 4.29165C0.750082 4.60806 0.98521 4.86956 1.29027 4.91094L1.37508 4.91665H13.0417C13.3869 4.91665 13.6667 4.63682 13.6667 4.29165C13.6667 3.97523 13.4316 3.71374 13.1266 3.67235L13.0417 3.66665H1.37508Z" fill="#EF7925"/>
<path d="M13.4837 3.8497C13.2618 3.62782 12.9146 3.60764 12.6699 3.78919L12.5998 3.8497L9.26647 7.18304C9.02239 7.42712 9.02239 7.82284 9.26647 8.06692C9.48836 8.28881 9.83558 8.30898 10.0803 8.12744L10.1504 8.06692L13.4837 4.73359C13.7278 4.48951 13.7278 4.09378 13.4837 3.8497Z" fill="#EF7925"/>
<path d="M10.1504 0.516371C9.90628 0.272294 9.51055 0.272294 9.26647 0.516371C9.04458 0.73826 9.02441 1.08548 9.20596 1.33016L9.26647 1.40025L12.5998 4.73359C12.8439 4.97767 13.2396 4.97767 13.4837 4.73359C13.7056 4.5117 13.7258 4.16448 13.5442 3.9198L13.4837 3.8497L10.1504 0.516371Z" fill="#EF7925"/>
</svg>
