<svg width="100" height="21" viewBox="0 0 100 21" fill="none" xmlns="http://www.w3.org/2000/svg">
<path d="M9.40238 4.24154C9.59525 4.24154 9.78245 4.25002 9.96964 4.26424C10.5766 4.31541 11.1609 4.44904 11.7083 4.64803C13.0896 5.15403 14.261 6.09499 15.0523 7.30881C14.7233 4.78451 13.1917 2.63827 11.0503 1.47561C9.9498 0.875807 8.68763 0.534668 7.34605 0.534668C6.21437 0.534668 4.45582 0.773418 3.4858 1.20835C2.03361 1.73425 1.08347 2.5899 0 3.55926L4.48987 6.37071C5.71799 5.05739 7.46234 4.24154 9.40238 4.24154Z" fill="black"/>
<path d="M14.1297 10.5795H14.1268C13.9907 10.5909 13.8546 10.5995 13.7212 10.6051H13.6872C13.1228 10.6194 12.5527 10.5625 11.9996 10.4346C11.282 10.2697 10.5843 9.98826 9.94042 9.58175C9.51497 9.31738 9.11506 8.99904 8.74634 8.62949C8.6414 8.52716 8.54219 8.4191 8.44859 8.31108C7.75936 7.5265 7.28569 6.62536 7.02191 5.6759C6.25611 6.03977 5.56968 6.54575 4.99675 7.15409C4.33589 7.85623 3.82536 8.70057 3.51336 9.63582C3.45096 9.82628 3.39421 10.0224 3.346 10.2242L3.20986 10.9917L2.66815 14.0675L2.54053 14.7839L3.01133 14.3802L3.80267 13.698L3.67505 11.981C3.64669 11.8076 3.63247 11.6314 3.63247 11.4494V11.4323L8.22167 11.5347C7.47572 11.8758 6.15965 13.0243 5.64627 13.5644L5.6406 13.5729C5.52431 13.6951 5.41371 13.8202 5.30593 13.951L4.91448 15.5259L4.86913 15.7078H4.87197L4.76138 16.1512L4.74151 16.2337L3.63247 20.7024L7.81603 18.4595L7.85577 18.2519L8.01462 17.4162C8.03164 17.3366 8.04864 17.2684 8.06566 17.2087C8.11104 17.0381 8.13375 16.9557 8.16212 16.879C8.2075 16.7368 8.25855 16.5975 8.30677 16.4724C9.26261 13.9794 10.4623 13.4108 10.3829 13.4108C10.4453 13.3597 10.5134 13.3113 10.5814 13.2659C11.1629 12.8594 11.923 12.5666 12.7456 12.4529C12.8704 12.4358 13.0122 12.4216 13.1597 12.4187L13.1994 12.4159L13.9567 11.5716L14.9579 10.4516L14.904 10.463C14.6459 10.517 14.3878 10.5568 14.1297 10.5795Z" fill="black"/>
<path d="M23.2182 14.0833C23.0622 14.5012 22.8127 14.8224 22.4439 15.0413C22.0837 15.2574 21.6696 15.3625 21.2044 15.3625C20.7251 15.3625 20.3507 15.2659 20.0784 15.0584C19.8061 14.8537 19.6643 14.5752 19.6643 14.2227C19.6643 13.4892 20.2231 13.1197 21.3434 13.1197H23.2182V14.0833ZM24.7697 8.53729C23.9897 7.84083 22.8694 7.48828 21.4115 7.48828C20.6599 7.48828 19.9196 7.58779 19.1992 7.78678C18.4845 7.98861 17.8633 8.27003 17.3528 8.63105L18.3313 10.5413C18.6716 10.2741 19.0857 10.0609 19.5707 9.89887C20.0529 9.74537 20.5436 9.66582 21.0457 9.66582C21.7717 9.66582 22.3106 9.825 22.668 10.1462C23.0367 10.4674 23.2182 10.928 23.2182 11.5221H21.0457C19.6729 11.5221 18.6518 11.7779 17.9909 12.2754C17.3301 12.7785 17.0039 13.475 17.0039 14.3506C17.0039 14.8964 17.1429 15.391 17.4265 15.8174C17.7045 16.2523 18.1101 16.5934 18.6376 16.8408C19.1709 17.0795 19.7977 17.2075 20.5266 17.2075C21.9249 17.2075 22.8779 16.7668 23.3884 15.8913V17.0681H25.944V11.6812C25.944 10.2798 25.5554 9.2309 24.7697 8.53729Z" fill="black"/>
<path d="M47.278 11.4464C47.3631 10.4827 47.7175 9.71519 48.3557 9.11538C48.9825 8.52126 49.7597 8.22558 50.69 8.22558C51.6345 8.22558 52.4173 8.52126 53.0555 9.11538C53.6852 9.71519 54.0425 10.4827 54.1248 11.4464H47.278ZM55.3784 12.0121C55.3784 11.0598 55.1742 10.2098 54.7686 9.47072C54.363 8.72593 53.81 8.14315 53.0981 7.73096C52.389 7.3074 51.5891 7.09705 50.69 7.09705C49.7965 7.09705 48.9939 7.3074 48.2791 7.73096C47.5644 8.14315 46.9971 8.72594 46.5915 9.47641C46.1803 10.2269 45.9761 11.074 45.9761 12.0121C45.9761 12.9587 46.186 13.8086 46.6199 14.5591C47.0454 15.2982 47.641 15.8895 48.404 16.3102C49.1726 16.7395 50.049 16.9498 51.0418 16.9498C51.8104 16.9498 52.5166 16.8162 53.1605 16.5433C53.8043 16.2761 54.3432 15.8838 54.7686 15.3636L54.0368 14.5136C53.671 14.9372 53.2314 15.2527 52.7322 15.4687C52.2302 15.6819 51.6771 15.7928 51.0758 15.7928C50.015 15.7928 49.1329 15.4773 48.4323 14.8604C47.7402 14.2407 47.3574 13.4305 47.278 12.4185H55.3558L55.3784 12.0121Z" fill="black"/>
<path d="M62.7686 12.7142C62.4396 12.356 62.0425 12.1116 61.5802 11.9638C61.1094 11.8159 60.4967 11.6681 59.7281 11.5231C59.0956 11.4123 58.6077 11.2985 58.2589 11.199C57.9015 11.0938 57.6009 10.9347 57.3626 10.7101C57.1244 10.4827 57.0052 10.1899 57.0052 9.82605C57.0052 9.34848 57.2151 8.9647 57.6434 8.66906C58.0632 8.37626 58.69 8.22558 59.5239 8.22558C60.6215 8.22558 61.5745 8.49853 62.3687 9.0557L62.9388 8.00385C62.5304 7.73663 62.0198 7.52065 61.3987 7.35293C60.769 7.18237 60.145 7.09705 59.5239 7.09705C58.3184 7.09705 57.3825 7.35857 56.7103 7.87594C56.0381 8.38762 55.7062 9.05565 55.7062 9.86013C55.7062 10.5111 55.8735 11.0228 56.2082 11.3895C56.5429 11.7619 56.9485 12.0178 57.425 12.1741C57.9072 12.3276 58.5368 12.4754 59.3225 12.6232C59.9096 12.7227 60.3776 12.8194 60.7321 12.9246C61.0923 13.0297 61.3845 13.1833 61.6142 13.3851C61.8468 13.5898 61.9631 13.8712 61.9631 14.2208C61.9631 14.7268 61.7532 15.1191 61.3306 15.392C60.908 15.6649 60.2585 15.8042 59.3764 15.8042C58.7127 15.8042 58.0745 15.7076 57.4675 15.5029C56.8521 15.2982 56.3501 15.0424 55.9445 14.7183L55.3545 15.7502C55.7601 16.0941 56.3217 16.3812 57.0336 16.6058C57.7483 16.8361 58.5028 16.9498 59.2856 16.9498C60.5308 16.9498 61.5093 16.694 62.2127 16.205C62.9161 15.7076 63.2678 15.0367 63.2678 14.1867C63.2678 13.5641 63.1062 13.0724 62.7686 12.7142Z" fill="black"/>
<path d="M72.5119 13.9849C72.1942 14.5648 71.7688 15.0082 71.2157 15.3209C70.6626 15.6308 70.0556 15.7929 69.3778 15.7929C68.6885 15.7929 68.0731 15.6308 67.537 15.3209C66.9924 15.0082 66.5585 14.5648 66.2494 13.9849C65.9346 13.4078 65.7813 12.7512 65.7813 12.0121C65.7813 11.2786 65.9346 10.6277 66.2494 10.0563C66.5585 9.4821 66.9924 9.04143 67.537 8.72021C68.0731 8.40183 68.6885 8.24266 69.3778 8.24266C70.0556 8.24266 70.6626 8.40183 71.2157 8.72021C71.7688 9.04143 72.1942 9.4821 72.5119 10.0563C72.8239 10.6277 72.9771 11.2786 72.9771 12.0121C72.9771 12.7512 72.8239 13.4078 72.5119 13.9849ZM73.655 9.45364C73.2437 8.70886 72.6622 8.12899 71.9305 7.71396C71.1958 7.30745 70.3762 7.09705 69.4714 7.09705C68.663 7.09705 67.9341 7.27331 67.2903 7.61728C66.655 7.96124 66.1388 8.45301 65.7445 9.08977V7.17665H64.4937V20.4264H65.8012V15.0367C66.1983 15.6592 66.7202 16.1368 67.347 16.458C67.9852 16.7877 68.6886 16.9498 69.4714 16.9498C70.3904 16.9498 71.2157 16.7451 71.9418 16.3329C72.6707 15.9207 73.2437 15.3437 73.655 14.5932C74.0776 13.8428 74.2818 12.9871 74.2818 12.0121C74.2818 11.0598 74.0776 10.2041 73.655 9.45364Z" fill="black"/>
<path d="M76.2536 11.4464C76.3443 10.4827 76.6989 9.71519 77.3314 9.11538C77.9582 8.52126 78.7438 8.22558 79.6713 8.22558C80.6101 8.22558 81.4014 8.52126 82.0311 9.11538C82.6607 9.71519 83.0181 10.4827 83.1004 11.4464H76.2536ZM84.3541 12.0121C84.3541 11.0598 84.1498 10.2098 83.7442 9.47072C83.3443 8.72593 82.7856 8.14315 82.0737 7.73096C81.3646 7.3074 80.5591 7.09705 79.6713 7.09705C78.7779 7.09705 77.9724 7.3074 77.2519 7.73096C76.5372 8.14315 75.9728 8.72594 75.5672 9.47641C75.1559 10.2269 74.9517 11.074 74.9517 12.0121C74.9517 12.9587 75.1672 13.8086 75.5955 14.5591C76.021 15.2982 76.6166 15.8895 77.3852 16.3102C78.1482 16.7395 79.0303 16.9498 80.0145 16.9498C80.7917 16.9498 81.4979 16.8162 82.1417 16.5433C82.7856 16.2761 83.3159 15.8838 83.7442 15.3636L83.0097 14.5136C82.6466 14.9372 82.2126 15.2527 81.7078 15.4687C81.2029 15.6819 80.6527 15.7928 80.0599 15.7928C78.9877 15.7928 78.1057 15.4773 77.4136 14.8604C76.7159 14.2407 76.3301 13.4305 76.2536 12.4185H84.3314L84.3541 12.0121Z" fill="black"/>
<path d="M92.6634 14.3658L93.6363 15.031C93.2533 15.6564 92.7343 16.1339 92.0763 16.4551C91.4126 16.7849 90.6694 16.947 89.8526 16.947C88.8939 16.947 88.0402 16.7366 87.2914 16.3216C86.5369 15.9008 85.9498 15.3181 85.5158 14.5619C85.0876 13.8058 84.8721 12.9558 84.8721 12.0092C84.8721 11.0711 85.0876 10.2212 85.5158 9.47356C85.9498 8.72309 86.5369 8.1403 87.2914 7.72527C88.0402 7.30739 88.8939 7.09705 89.8526 7.09705C90.6836 7.09705 91.4268 7.26476 92.0848 7.58598C92.7428 7.91005 93.2533 8.38478 93.6363 9.01017L92.6634 9.67538C92.3429 9.19781 91.9373 8.84246 91.4466 8.59515C90.9588 8.35636 90.4255 8.23981 89.8526 8.23981C89.152 8.23981 88.5224 8.39329 87.9721 8.70883C87.4106 9.02437 86.9766 9.46503 86.6617 10.0393C86.3554 10.622 86.2023 11.273 86.2023 12.0092C86.2023 12.7597 86.3554 13.4192 86.6617 13.9934C86.9766 14.5619 87.4106 15.0025 87.9721 15.3181C88.5224 15.6279 89.152 15.79 89.8526 15.79C90.4255 15.79 90.9588 15.6706 91.4466 15.4375C91.9373 15.1987 92.3429 14.8491 92.6634 14.3658Z" fill="black"/>
<path d="M99.5347 15.3598C99.3532 15.5219 99.1348 15.6413 98.8852 15.7237C98.6327 15.8175 98.3746 15.8573 98.1023 15.8573C97.5606 15.8573 97.1493 15.701 96.8628 15.4025C96.5764 15.1069 96.4289 14.6662 96.4289 14.0892V8.31287H99.3673V7.20702H96.4289V5.08923H95.1299V14.1602C95.1299 15.0557 95.3738 15.7521 95.8616 16.2411C96.3523 16.7357 97.0501 16.9802 97.9548 16.9802C98.3462 16.9802 98.7235 16.9233 99.0865 16.8039C99.4439 16.6845 99.7502 16.5168 99.997 16.3008L99.5347 15.3598Z" fill="black"/>
<path d="M23.2182 14.0833C23.0622 14.5012 22.8127 14.8224 22.4439 15.0413C22.0837 15.2574 21.6696 15.3625 21.2044 15.3625C20.7251 15.3625 20.3507 15.2659 20.0784 15.0584C19.8061 14.8537 19.6643 14.5752 19.6643 14.2227C19.6643 13.4892 20.2231 13.1197 21.3434 13.1197H23.2182V14.0833ZM24.7697 8.53729C23.9897 7.84083 22.8694 7.48828 21.4115 7.48828C20.6599 7.48828 19.9196 7.58779 19.1992 7.78678C18.4845 7.98861 17.8633 8.27003 17.3528 8.63105L18.3313 10.5413C18.6716 10.2741 19.0857 10.0609 19.5707 9.89887C20.0529 9.74537 20.5436 9.66582 21.0457 9.66582C21.7717 9.66582 22.3106 9.825 22.668 10.1462C23.0367 10.4674 23.2182 10.928 23.2182 11.5221H21.0457C19.6729 11.5221 18.6518 11.7779 17.9909 12.2754C17.3301 12.7785 17.0039 13.475 17.0039 14.3506C17.0039 14.8964 17.1429 15.391 17.4265 15.8174C17.7045 16.2523 18.1101 16.5934 18.6376 16.8408C19.1709 17.0795 19.7977 17.2075 20.5266 17.2075C21.9249 17.2075 22.8779 16.7668 23.3884 15.8913V17.0681H25.944V11.6812C25.944 10.2798 25.5554 9.2309 24.7697 8.53729Z" fill="black"/>
<path d="M40.1021 11.6496H36.6787V5.18814H40.1021C41.3757 5.18814 42.3485 5.46671 43.0179 6.02957C43.6901 6.58389 44.0247 7.37982 44.0247 8.42593C44.0247 9.4493 43.6901 10.2368 43.0179 10.8053C42.3485 11.3653 41.3757 11.6496 40.1021 11.6496ZM33.4255 14.2449C32.9716 14.7168 32.3987 14.9584 31.7123 14.9584C31.0117 14.9584 30.436 14.7168 29.9822 14.2449C29.5199 13.7759 29.2929 13.1448 29.2929 12.346C29.2929 11.5529 29.5199 10.919 29.9822 10.4443C30.436 9.96954 31.0117 9.73075 31.7123 9.73075C32.3987 9.73075 32.9716 9.96954 33.4255 10.4443C33.8793 10.919 34.1033 11.5529 34.1033 12.346C34.1033 13.1448 33.8793 13.7759 33.4255 14.2449ZM42.4535 12.4796C43.3894 12.1726 44.1155 11.6723 44.6261 10.9787C45.1309 10.2822 45.389 9.43793 45.389 8.42593C45.389 7.05291 44.921 5.97272 43.9907 5.18814C43.0576 4.40356 41.7727 4.01123 40.1361 4.01123L34.0523 4.05391V8.62775C33.3772 7.86591 32.4384 7.48499 31.2387 7.48499C30.3509 7.48499 29.5454 7.68685 28.8335 8.08767C28.1131 8.47996 27.5543 9.04565 27.1402 9.78475C26.7318 10.5238 26.5332 11.3738 26.5332 12.346C26.5332 13.3154 26.7318 14.171 27.1402 14.9044C27.5543 15.6407 28.1131 16.2092 28.8335 16.6043C29.5454 17.0052 30.3509 17.2042 31.2387 17.2042C32.5178 17.2042 33.4992 16.7977 34.1771 15.9761V17.0648H36.7837V12.8065H40.1361C40.4935 12.8065 40.8339 12.7894 41.1658 12.7525L44.1013 16.8943H45.5932L42.4535 12.4796Z" fill="black"/>
<path d="M47.278 11.4464C47.3631 10.4827 47.7175 9.71519 48.3557 9.11538C48.9825 8.52126 49.7597 8.22558 50.69 8.22558C51.6345 8.22558 52.4173 8.52126 53.0555 9.11538C53.6852 9.71519 54.0425 10.4827 54.1248 11.4464H47.278ZM55.3784 12.0121C55.3784 11.0598 55.1742 10.2098 54.7686 9.47072C54.363 8.72593 53.81 8.14315 53.0981 7.73096C52.389 7.3074 51.5891 7.09705 50.69 7.09705C49.7965 7.09705 48.9939 7.3074 48.2791 7.73096C47.5644 8.14315 46.9971 8.72594 46.5915 9.47641C46.1803 10.2269 45.9761 11.074 45.9761 12.0121C45.9761 12.9587 46.186 13.8086 46.6199 14.5591C47.0454 15.2982 47.641 15.8895 48.404 16.3102C49.1726 16.7395 50.049 16.9498 51.0418 16.9498C51.8104 16.9498 52.5166 16.8162 53.1605 16.5433C53.8043 16.2761 54.3432 15.8838 54.7686 15.3636L54.0368 14.5136C53.671 14.9372 53.2314 15.2527 52.7322 15.4687C52.2302 15.6819 51.6771 15.7928 51.0758 15.7928C50.015 15.7928 49.1329 15.4773 48.4323 14.8604C47.7402 14.2407 47.3574 13.4305 47.278 12.4185H55.3558L55.3784 12.0121Z" fill="black"/>
<path d="M62.7686 12.7114C63.1062 13.0695 63.265 13.5585 63.265 14.1838C63.265 15.031 62.9161 15.7047 62.2098 16.2022C61.5093 16.694 60.5308 16.947 59.2856 16.947C58.5028 16.947 57.7483 16.8332 57.0336 16.603C56.3188 16.3784 55.7601 16.0913 55.3545 15.7473L55.9416 14.7155C56.3472 15.0395 56.8521 15.2982 57.4675 15.5029C58.0745 15.7047 58.7127 15.8042 59.3764 15.8042C60.2585 15.8042 60.908 15.662 61.3278 15.3891C61.7561 15.1162 61.9659 14.724 61.9659 14.218C61.9659 13.8683 61.8468 13.5869 61.6142 13.3851C61.3845 13.1804 61.0895 13.0269 60.735 12.9217C60.3776 12.8165 59.9096 12.717 59.3196 12.6204C58.5368 12.4725 57.9072 12.3248 57.425 12.1713C56.9485 12.0178 56.5429 11.7591 56.2082 11.3867C55.8735 11.0228 55.7034 10.5111 55.7034 9.85728C55.7034 9.0528 56.0409 8.38478 56.7131 7.87309C57.3825 7.35572 58.3213 7.09705 59.5239 7.09705C60.145 7.09705 60.769 7.17952 61.3987 7.34724C62.0227 7.5178 62.5304 7.73379 62.9388 8.001L62.3715 9.05285C61.5745 8.49853 60.6215 8.22558 59.5239 8.22558C58.6928 8.22558 58.0632 8.37058 57.6434 8.66621C57.2151 8.96185 57.0052 9.34564 57.0052 9.82321C57.0052 10.1871 57.1244 10.4827 57.3626 10.7072C57.6009 10.9318 57.9015 11.091 58.2589 11.1962C58.6077 11.2957 59.0984 11.4066 59.7281 11.5203C60.4967 11.6681 61.1122 11.8131 61.5802 11.9609C62.0425 12.1087 62.4396 12.3532 62.7686 12.7114Z" fill="black"/>
<path d="M72.5119 13.9849C72.1942 14.5648 71.7688 15.0082 71.2157 15.3209C70.6626 15.6308 70.0556 15.7929 69.3778 15.7929C68.6885 15.7929 68.0731 15.6308 67.537 15.3209C66.9924 15.0082 66.5585 14.5648 66.2494 13.9849C65.9346 13.4078 65.7813 12.7512 65.7813 12.0121C65.7813 11.2786 65.9346 10.6277 66.2494 10.0563C66.5585 9.4821 66.9924 9.04143 67.537 8.72021C68.0731 8.40183 68.6885 8.24266 69.3778 8.24266C70.0556 8.24266 70.6626 8.40183 71.2157 8.72021C71.7688 9.04143 72.1942 9.4821 72.5119 10.0563C72.8239 10.6277 72.9771 11.2786 72.9771 12.0121C72.9771 12.7512 72.8239 13.4078 72.5119 13.9849ZM73.655 9.45364C73.2437 8.70886 72.6622 8.12899 71.9305 7.71396C71.1958 7.30745 70.3762 7.09705 69.4714 7.09705C68.663 7.09705 67.9341 7.27331 67.2903 7.61728C66.655 7.96124 66.1388 8.45301 65.7445 9.08977V7.17665H64.4937V20.4264H65.8012V15.0367C66.1983 15.6592 66.7202 16.1368 67.347 16.458C67.9852 16.7877 68.6886 16.9498 69.4714 16.9498C70.3904 16.9498 71.2157 16.7451 71.9418 16.3329C72.6707 15.9207 73.2437 15.3437 73.655 14.5932C74.0776 13.8428 74.2818 12.9871 74.2818 12.0121C74.2818 11.0598 74.0776 10.2041 73.655 9.45364Z" fill="black"/>
<path d="M76.2536 11.4464C76.3443 10.4827 76.6989 9.71519 77.3314 9.11538C77.9582 8.52126 78.7438 8.22558 79.6713 8.22558C80.6101 8.22558 81.4014 8.52126 82.0311 9.11538C82.6607 9.71519 83.0181 10.4827 83.1004 11.4464H76.2536ZM84.3541 12.0121C84.3541 11.0598 84.1498 10.2098 83.7442 9.47072C83.3443 8.72593 82.7856 8.14315 82.0737 7.73096C81.3646 7.3074 80.5591 7.09705 79.6713 7.09705C78.7779 7.09705 77.9724 7.3074 77.2519 7.73096C76.5372 8.14315 75.9728 8.72594 75.5672 9.47641C75.1559 10.2269 74.9517 11.074 74.9517 12.0121C74.9517 12.9587 75.1672 13.8086 75.5955 14.5591C76.021 15.2982 76.6166 15.8895 77.3852 16.3102C78.1482 16.7395 79.0303 16.9498 80.0145 16.9498C80.7917 16.9498 81.4979 16.8162 82.1417 16.5433C82.7856 16.2761 83.3159 15.8838 83.7442 15.3636L83.0097 14.5136C82.6466 14.9372 82.2126 15.2527 81.7078 15.4687C81.2029 15.6819 80.6527 15.7928 80.0599 15.7928C78.9877 15.7928 78.1057 15.4773 77.4136 14.8604C76.7159 14.2407 76.3301 13.4305 76.2536 12.4185H84.3314L84.3541 12.0121Z" fill="black"/>
<path d="M99.9998 16.2979C99.7559 16.5168 99.4467 16.6845 99.0894 16.8039C98.7263 16.9233 98.3491 16.9802 97.9577 16.9802C97.0557 16.9802 96.3551 16.7329 95.8644 16.2439C95.3766 15.7521 95.1299 15.0585 95.1299 14.1602V5.08923H96.4317V7.20702H99.3702V8.31287H96.4317V14.092C96.4317 14.6662 96.5792 15.1069 96.8657 15.4025C97.1521 15.7038 97.5663 15.8573 98.1052 15.8573C98.3775 15.8573 98.6356 15.8147 98.888 15.7237C99.1404 15.6413 99.356 15.5219 99.5375 15.3598L99.9998 16.2979Z" fill="black"/>
</svg>
