<svg width="100" height="21" viewBox="0 0 100 21" fill="none" xmlns="http://www.w3.org/2000/svg">
<path d="M9.40238 4.24203C9.59525 4.24203 9.78244 4.25051 9.96964 4.26473C10.5766 4.31589 11.1609 4.44953 11.7083 4.64852C13.0896 5.15451 14.261 6.09547 15.0523 7.3093C14.7233 4.785 13.1917 2.63876 11.0503 1.4761C9.9498 0.876295 8.68763 0.535156 7.34605 0.535156C6.21437 0.535156 4.45582 0.773906 3.4858 1.20884C2.03361 1.73473 1.08347 2.59039 0 3.55974L4.48987 6.3712C5.71799 5.05788 7.46234 4.24203 9.40238 4.24203Z" fill="white"/>
<path d="M14.1299 10.58H14.1271C13.9909 10.5914 13.8548 10.6 13.7215 10.6056H13.6875C13.1231 10.6198 12.5529 10.563 11.9998 10.435C11.2822 10.2702 10.5845 9.98875 9.94066 9.58224C9.51522 9.31787 9.11531 8.99953 8.74659 8.62998C8.64164 8.52765 8.54243 8.41959 8.44883 8.31157C7.75961 7.52699 7.28593 6.62585 7.02216 5.67639C6.25635 6.04026 5.56993 6.54624 4.99699 7.15458C4.33613 7.85672 3.8256 8.70106 3.51361 9.63631C3.45121 9.82677 3.39446 10.0229 3.34624 10.2247L3.2101 10.9922L2.66839 14.068L2.54077 14.7844L3.01157 14.3807L3.80292 13.6984L3.6753 11.9815C3.64693 11.8081 3.63271 11.6318 3.63271 11.4499V11.4328L8.22191 11.5352C7.47596 11.8763 6.15989 13.0247 5.64652 13.5648L5.64084 13.5734C5.52455 13.6956 5.41396 13.8207 5.30618 13.9515L4.91473 15.5263L4.86937 15.7082H4.87221L4.76163 16.1517L4.74175 16.2342L3.63271 20.7029L7.81627 18.4599L7.85602 18.2524L8.01487 17.4167C8.03188 17.3371 8.04888 17.2689 8.0659 17.2092C8.11128 17.0386 8.134 16.9562 8.16236 16.8795C8.20774 16.7373 8.2588 16.598 8.30702 16.4729C9.26285 13.9799 10.4626 13.4113 10.3831 13.4113C10.4455 13.3602 10.5136 13.3118 10.5817 13.2664C11.1631 12.8598 11.9233 12.5671 12.7458 12.4534C12.8706 12.4363 13.0124 12.4221 13.1599 12.4192L13.1997 12.4164L13.9569 11.5721L14.9582 10.4521L14.9042 10.4635C14.6461 10.5175 14.388 10.5573 14.1299 10.58Z" fill="white"/>
<path d="M23.2182 14.0838C23.0622 14.5017 22.8127 14.8229 22.4439 15.0418C22.0837 15.2579 21.6696 15.363 21.2044 15.363C20.7251 15.363 20.3507 15.2664 20.0784 15.0589C19.8061 14.8542 19.6643 14.5756 19.6643 14.2231C19.6643 13.4897 20.2231 13.1201 21.3434 13.1201H23.2182V14.0838ZM24.7697 8.53777C23.9897 7.84132 22.8694 7.48877 21.4115 7.48877C20.6599 7.48877 19.9196 7.58828 19.1992 7.78727C18.4845 7.9891 17.8633 8.27051 17.3528 8.63154L18.3313 10.5418C18.6716 10.2746 19.0857 10.0614 19.5707 9.89936C20.0529 9.74586 20.5436 9.66631 21.0457 9.66631C21.7717 9.66631 22.3106 9.82549 22.668 10.1467C23.0367 10.4679 23.2182 10.9285 23.2182 11.5226H21.0457C19.6729 11.5226 18.6518 11.7784 17.9909 12.2759C17.3301 12.779 17.0039 13.4755 17.0039 14.3511C17.0039 14.8968 17.1429 15.3915 17.4265 15.8179C17.7045 16.2528 18.1101 16.5939 18.6376 16.8412C19.1709 17.08 19.7977 17.208 20.5266 17.208C21.9249 17.208 22.8779 16.7673 23.3884 15.8918V17.0686H25.944V11.6817C25.944 10.2803 25.5554 9.23139 24.7697 8.53777Z" fill="white"/>
<path d="M47.2782 11.4469C47.3633 10.4832 47.7178 9.71568 48.356 9.11587C48.9828 8.52175 49.7599 8.22607 50.6902 8.22607C51.6347 8.22607 52.4176 8.52175 53.0557 9.11587C53.6854 9.71568 54.0428 10.4832 54.125 11.4469H47.2782ZM55.3787 12.0126C55.3787 11.0603 55.1745 10.2103 54.7689 9.47121C54.3633 8.72642 53.8102 8.14364 53.0983 7.73145C52.3892 7.30789 51.5893 7.09753 50.6902 7.09753C49.7968 7.09753 48.9941 7.30789 48.2794 7.73145C47.5646 8.14364 46.9974 8.72643 46.5918 9.4769C46.1805 10.2274 45.9763 11.0745 45.9763 12.0126C45.9763 12.9592 46.1862 13.8091 46.6202 14.5596C47.0456 15.2987 47.6412 15.89 48.4042 16.3107C49.1729 16.74 50.0493 16.9503 51.042 16.9503C51.8106 16.9503 52.5169 16.8167 53.1607 16.5438C53.8046 16.2766 54.3434 15.8843 54.7689 15.3641L54.0371 14.5141C53.6712 14.9377 53.2316 15.2532 52.7324 15.4692C52.2304 15.6824 51.6773 15.7933 51.076 15.7933C50.0152 15.7933 49.1331 15.4778 48.4325 14.8609C47.7405 14.2412 47.3576 13.431 47.2782 12.419H55.356L55.3787 12.0126Z" fill="white"/>
<path d="M62.7689 12.7147C62.4399 12.3565 62.0427 12.1121 61.5804 11.9642C61.1096 11.8164 60.4969 11.6686 59.7283 11.5236C59.0958 11.4128 58.608 11.299 58.2591 11.1995C57.9017 11.0943 57.6011 10.9352 57.3629 10.7106C57.1246 10.4832 57.0055 10.1904 57.0055 9.82654C57.0055 9.34897 57.2154 8.96519 57.6437 8.66955C58.0634 8.37675 58.6902 8.22607 59.5241 8.22607C60.6218 8.22607 61.5748 8.49902 62.3689 9.05618L62.939 8.00433C62.5306 7.73712 62.0201 7.52114 61.3989 7.35342C60.7693 7.18286 60.1453 7.09753 59.5241 7.09753C58.3187 7.09753 57.3827 7.35906 56.7105 7.87643C56.0383 8.38811 55.7064 9.05614 55.7064 9.86062C55.7064 10.5116 55.8738 11.0233 56.2085 11.39C56.5432 11.7624 56.9488 12.0183 57.4253 12.1746C57.9074 12.3281 58.5371 12.4759 59.3227 12.6237C59.9098 12.7232 60.3778 12.8199 60.7324 12.925C61.0926 13.0302 61.3848 13.1838 61.6145 13.3856C61.8471 13.5903 61.9634 13.8717 61.9634 14.2213C61.9634 14.7273 61.7535 15.1196 61.3309 15.3925C60.9083 15.6654 60.2587 15.8047 59.3766 15.8047C58.7129 15.8047 58.0747 15.7081 57.4678 15.5034C56.8523 15.2987 56.3503 15.0429 55.9447 14.7188L55.3547 15.7507C55.7603 16.0946 56.3219 16.3817 57.0338 16.6063C57.7486 16.8366 58.5031 16.9503 59.2859 16.9503C60.531 16.9503 61.5095 16.6945 62.2129 16.2055C62.9163 15.708 63.2681 15.0371 63.2681 14.1872C63.2681 13.5646 63.1064 13.0729 62.7689 12.7147Z" fill="white"/>
<path d="M72.5117 13.9854C72.194 14.5653 71.7685 15.0087 71.2155 15.3214C70.6624 15.6313 70.0554 15.7933 69.3775 15.7933C68.6883 15.7933 68.0728 15.6313 67.5368 15.3214C66.9922 15.0087 66.5583 14.5653 66.2491 13.9854C65.9343 13.4083 65.7811 12.7516 65.7811 12.0126C65.7811 11.2791 65.9343 10.6282 66.2491 10.0568C66.5583 9.48259 66.9922 9.04192 67.5368 8.7207C68.0728 8.40232 68.6883 8.24315 69.3775 8.24315C70.0554 8.24315 70.6624 8.40232 71.2155 8.7207C71.7685 9.04192 72.194 9.48259 72.5117 10.0568C72.8237 10.6282 72.9769 11.2791 72.9769 12.0126C72.9769 12.7516 72.8237 13.4083 72.5117 13.9854ZM73.6547 9.45413C73.2434 8.70935 72.662 8.12948 71.9302 7.71444C71.1956 7.30794 70.3759 7.09753 69.4711 7.09753C68.6628 7.09753 67.9339 7.2738 67.29 7.61777C66.6547 7.96173 66.1385 8.4535 65.7443 9.09026V7.17714H64.4934V20.4269H65.801V15.0371C66.1981 15.6597 66.7199 16.1373 67.3468 16.4585C67.9849 16.7882 68.6883 16.9503 69.4711 16.9503C70.3901 16.9503 71.2155 16.7456 71.9416 16.3334C72.6705 15.9212 73.2434 15.3442 73.6547 14.5937C74.0773 13.8433 74.2815 12.9876 74.2815 12.0126C74.2815 11.0603 74.0773 10.2046 73.6547 9.45413Z" fill="white"/>
<path d="M76.2538 11.4469C76.3446 10.4832 76.6991 9.71568 77.3316 9.11587C77.9584 8.52175 78.7441 8.22607 79.6716 8.22607C80.6104 8.22607 81.4017 8.52175 82.0313 9.11587C82.661 9.71568 83.0184 10.4832 83.1006 11.4469H76.2538ZM84.3543 12.0126C84.3543 11.0603 84.1501 10.2103 83.7445 9.47121C83.3446 8.72642 82.7858 8.14364 82.0739 7.73145C81.3648 7.30789 80.5593 7.09753 79.6716 7.09753C78.7781 7.09753 77.9726 7.30789 77.2522 7.73145C76.5374 8.14364 75.973 8.72643 75.5674 9.4769C75.1562 10.2274 74.9519 11.0745 74.9519 12.0126C74.9519 12.9592 75.1675 13.8091 75.5958 14.5596C76.0212 15.2987 76.6168 15.89 77.3855 16.3107C78.1485 16.74 79.0305 16.9503 80.0147 16.9503C80.7919 16.9503 81.4981 16.8167 82.142 16.5438C82.7858 16.2766 83.3162 15.8843 83.7445 15.3641L83.0099 14.5141C82.6469 14.9377 82.2129 15.2532 81.708 15.4692C81.2032 15.6824 80.6529 15.7933 80.0601 15.7933C78.988 15.7933 78.1059 15.4778 77.4139 14.8609C76.7161 14.2412 76.3304 13.431 76.2538 12.419H84.3316L84.3543 12.0126Z" fill="white"/>
<path d="M92.6632 14.3663L93.636 15.0315C93.2531 15.6569 92.7341 16.1344 92.076 16.4556C91.4123 16.7854 90.6692 16.9475 89.8523 16.9475C88.8937 16.9475 88.0399 16.7371 87.2911 16.322C86.5367 15.9013 85.9496 15.3186 85.5156 14.5624C85.0873 13.8063 84.8718 12.9563 84.8718 12.0097C84.8718 11.0716 85.0873 10.2217 85.5156 9.47405C85.9496 8.72358 86.5367 8.14079 87.2911 7.72576C88.0399 7.30788 88.8937 7.09753 89.8523 7.09753C90.6834 7.09753 91.4265 7.26524 92.0846 7.58647C92.7426 7.91053 93.2531 8.38527 93.636 9.01066L92.6632 9.67587C92.3427 9.1983 91.9371 8.84295 91.4464 8.59564C90.9585 8.35685 90.4253 8.2403 89.8523 8.2403C89.1518 8.2403 88.5221 8.39378 87.9719 8.70932C87.4103 9.02485 86.9763 9.46552 86.6615 10.0397C86.3552 10.6225 86.202 11.2734 86.202 12.0097C86.202 12.7602 86.3552 13.4197 86.6615 13.9939C86.9763 14.5624 87.4103 15.003 87.9719 15.3186C88.5221 15.6284 89.1518 15.7905 89.8523 15.7905C90.4253 15.7905 90.9585 15.6711 91.4464 15.438C91.9371 15.1992 92.3427 14.8496 92.6632 14.3663Z" fill="white"/>
<path d="M99.5349 15.3603C99.3534 15.5223 99.135 15.6418 98.8854 15.7242C98.633 15.818 98.3749 15.8578 98.1026 15.8578C97.5608 15.8578 97.1495 15.7015 96.8631 15.403C96.5766 15.1074 96.4291 14.6667 96.4291 14.0896V8.31335H99.3676V7.20751H96.4291V5.08972H95.1301V14.1607C95.1301 15.0562 95.374 15.7526 95.8618 16.2416C96.3525 16.7362 97.0503 16.9807 97.9551 16.9807C98.3465 16.9807 98.7237 16.9238 99.0868 16.8044C99.4441 16.685 99.7505 16.5173 99.9972 16.3013L99.5349 15.3603Z" fill="white"/>
<path d="M23.2182 14.0838C23.0622 14.5017 22.8127 14.8229 22.4439 15.0418C22.0837 15.2579 21.6696 15.363 21.2044 15.363C20.7251 15.363 20.3507 15.2664 20.0784 15.0589C19.8061 14.8542 19.6643 14.5756 19.6643 14.2231C19.6643 13.4897 20.2231 13.1201 21.3434 13.1201H23.2182V14.0838ZM24.7697 8.53777C23.9897 7.84132 22.8694 7.48877 21.4115 7.48877C20.6599 7.48877 19.9196 7.58828 19.1992 7.78727C18.4845 7.9891 17.8633 8.27051 17.3528 8.63154L18.3313 10.5418C18.6716 10.2746 19.0857 10.0614 19.5707 9.89936C20.0529 9.74586 20.5436 9.66631 21.0457 9.66631C21.7717 9.66631 22.3106 9.82549 22.668 10.1467C23.0367 10.4679 23.2182 10.9285 23.2182 11.5226H21.0457C19.6729 11.5226 18.6518 11.7784 17.9909 12.2759C17.3301 12.779 17.0039 13.4755 17.0039 14.3511C17.0039 14.8968 17.1429 15.3915 17.4265 15.8179C17.7045 16.2528 18.1101 16.5939 18.6376 16.8412C19.1709 17.08 19.7977 17.208 20.5266 17.208C21.9249 17.208 22.8779 16.7673 23.3884 15.8918V17.0686H25.944V11.6817C25.944 10.2803 25.5554 9.23139 24.7697 8.53777Z" fill="white"/>
<path d="M40.1024 11.6501H36.6789V5.18863H40.1024C41.3759 5.18863 42.3488 5.4672 43.0181 6.03005C43.6903 6.58438 44.025 7.38031 44.025 8.42642C44.025 9.44979 43.6903 10.2372 43.0181 10.8058C42.3488 11.3658 41.3759 11.6501 40.1024 11.6501ZM33.4257 14.2454C32.9719 14.7173 32.3989 14.9589 31.7126 14.9589C31.012 14.9589 30.4363 14.7173 29.9824 14.2454C29.5201 13.7764 29.2932 13.1453 29.2932 12.3465C29.2932 11.5534 29.5201 10.9195 29.9824 10.4448C30.4363 9.97003 31.012 9.73124 31.7126 9.73124C32.3989 9.73124 32.9719 9.97003 33.4257 10.4448C33.8795 10.9195 34.1035 11.5534 34.1035 12.3465C34.1035 13.1453 33.8795 13.7764 33.4257 14.2454ZM42.4537 12.4801C43.3897 12.1731 44.1158 11.6728 44.6263 10.9791C45.1312 10.2827 45.3892 9.43842 45.3892 8.42642C45.3892 7.0534 44.9213 5.97321 43.991 5.18863C43.0578 4.40405 41.7729 4.01172 40.1364 4.01172L34.0525 4.0544V8.62824C33.3775 7.8664 32.4387 7.48547 31.2389 7.48547C30.3511 7.48547 29.5456 7.68734 28.8337 8.08816C28.1133 8.48045 27.5546 9.04613 27.1405 9.78523C26.732 10.5243 26.5334 11.3743 26.5334 12.3465C26.5334 13.3159 26.732 14.1715 27.1405 14.9049C27.5546 15.6412 28.1133 16.2097 28.8337 16.6048C29.5456 17.0057 30.3511 17.2047 31.2389 17.2047C32.5181 17.2047 33.4994 16.7982 34.1773 15.9766V17.0653H36.7839V12.807H40.1364C40.4938 12.807 40.8342 12.7899 41.166 12.753L44.1016 16.8948H45.5935L42.4537 12.4801Z" fill="white"/>
<path d="M47.2782 11.4469C47.3633 10.4832 47.7178 9.71568 48.356 9.11587C48.9828 8.52175 49.7599 8.22607 50.6902 8.22607C51.6347 8.22607 52.4176 8.52175 53.0557 9.11587C53.6854 9.71568 54.0428 10.4832 54.125 11.4469H47.2782ZM55.3787 12.0126C55.3787 11.0603 55.1745 10.2103 54.7689 9.47121C54.3633 8.72642 53.8102 8.14364 53.0983 7.73145C52.3892 7.30789 51.5893 7.09753 50.6902 7.09753C49.7968 7.09753 48.9941 7.30789 48.2794 7.73145C47.5646 8.14364 46.9974 8.72643 46.5918 9.4769C46.1805 10.2274 45.9763 11.0745 45.9763 12.0126C45.9763 12.9592 46.1862 13.8091 46.6202 14.5596C47.0456 15.2987 47.6412 15.89 48.4042 16.3107C49.1729 16.74 50.0493 16.9503 51.042 16.9503C51.8106 16.9503 52.5169 16.8167 53.1607 16.5438C53.8046 16.2766 54.3434 15.8843 54.7689 15.3641L54.0371 14.5141C53.6712 14.9377 53.2316 15.2532 52.7324 15.4692C52.2304 15.6824 51.6773 15.7933 51.076 15.7933C50.0152 15.7933 49.1331 15.4778 48.4325 14.8609C47.7405 14.2412 47.3576 13.431 47.2782 12.419H55.356L55.3787 12.0126Z" fill="white"/>
<path d="M62.7689 12.7118C63.1064 13.07 63.2652 13.5589 63.2652 14.1843C63.2652 15.0315 62.9163 15.7052 62.2101 16.2027C61.5095 16.6945 60.531 16.9475 59.2859 16.9475C58.5031 16.9475 57.7486 16.8337 57.0338 16.6035C56.3191 16.3789 55.7603 16.0918 55.3547 15.7478L55.9419 14.7159C56.3475 15.04 56.8523 15.2987 57.4678 15.5034C58.0747 15.7052 58.7129 15.8047 59.3766 15.8047C60.2587 15.8047 60.9082 15.6625 61.328 15.3896C61.7563 15.1167 61.9662 14.7245 61.9662 14.2185C61.9662 13.8688 61.8471 13.5874 61.6145 13.3856C61.3848 13.1809 61.0897 13.0274 60.7352 12.9222C60.3778 12.817 59.9098 12.7175 59.3199 12.6209C58.5371 12.473 57.9074 12.3253 57.4253 12.1718C56.9488 12.0183 56.5432 11.7596 56.2085 11.3872C55.8738 11.0233 55.7036 10.5116 55.7036 9.85777C55.7036 9.05329 56.0411 8.38527 56.7133 7.87358C57.3827 7.35621 58.3215 7.09753 59.5241 7.09753C60.1453 7.09753 60.7693 7.18001 61.3989 7.34773C62.0229 7.51829 62.5306 7.73428 62.939 8.00149L62.3718 9.05334C61.5748 8.49901 60.6218 8.22607 59.5241 8.22607C58.6931 8.22607 58.0634 8.37106 57.6437 8.6667C57.2154 8.96234 57.0055 9.34612 57.0055 9.8237C57.0055 10.1876 57.1246 10.4832 57.3629 10.7077C57.6011 10.9323 57.9017 11.0915 58.2591 11.1967C58.608 11.2962 59.0986 11.4071 59.7283 11.5208C60.4969 11.6686 61.1124 11.8136 61.5804 11.9614C62.0427 12.1092 62.4399 12.3537 62.7689 12.7118Z" fill="white"/>
<path d="M72.5117 13.9854C72.194 14.5653 71.7685 15.0087 71.2155 15.3214C70.6624 15.6313 70.0554 15.7933 69.3775 15.7933C68.6883 15.7933 68.0728 15.6313 67.5368 15.3214C66.9922 15.0087 66.5583 14.5653 66.2491 13.9854C65.9343 13.4083 65.7811 12.7516 65.7811 12.0126C65.7811 11.2791 65.9343 10.6282 66.2491 10.0568C66.5583 9.48259 66.9922 9.04192 67.5368 8.7207C68.0728 8.40232 68.6883 8.24315 69.3775 8.24315C70.0554 8.24315 70.6624 8.40232 71.2155 8.7207C71.7685 9.04192 72.194 9.48259 72.5117 10.0568C72.8237 10.6282 72.9769 11.2791 72.9769 12.0126C72.9769 12.7516 72.8237 13.4083 72.5117 13.9854ZM73.6547 9.45413C73.2434 8.70935 72.662 8.12948 71.9302 7.71444C71.1956 7.30794 70.3759 7.09753 69.4711 7.09753C68.6628 7.09753 67.9339 7.2738 67.29 7.61777C66.6547 7.96173 66.1385 8.4535 65.7443 9.09026V7.17714H64.4934V20.4269H65.801V15.0371C66.1981 15.6597 66.7199 16.1373 67.3468 16.4585C67.9849 16.7882 68.6883 16.9503 69.4711 16.9503C70.3901 16.9503 71.2155 16.7456 71.9416 16.3334C72.6705 15.9212 73.2434 15.3442 73.6547 14.5937C74.0773 13.8433 74.2815 12.9876 74.2815 12.0126C74.2815 11.0603 74.0773 10.2046 73.6547 9.45413Z" fill="white"/>
<path d="M76.2538 11.4469C76.3446 10.4832 76.6991 9.71568 77.3316 9.11587C77.9584 8.52175 78.7441 8.22607 79.6716 8.22607C80.6104 8.22607 81.4017 8.52175 82.0313 9.11587C82.661 9.71568 83.0184 10.4832 83.1006 11.4469H76.2538ZM84.3543 12.0126C84.3543 11.0603 84.1501 10.2103 83.7445 9.47121C83.3446 8.72642 82.7858 8.14364 82.0739 7.73145C81.3648 7.30789 80.5593 7.09753 79.6716 7.09753C78.7781 7.09753 77.9726 7.30789 77.2522 7.73145C76.5374 8.14364 75.973 8.72643 75.5674 9.4769C75.1562 10.2274 74.9519 11.0745 74.9519 12.0126C74.9519 12.9592 75.1675 13.8091 75.5958 14.5596C76.0212 15.2987 76.6168 15.89 77.3855 16.3107C78.1485 16.74 79.0305 16.9503 80.0147 16.9503C80.7919 16.9503 81.4981 16.8167 82.142 16.5438C82.7858 16.2766 83.3162 15.8843 83.7445 15.3641L83.0099 14.5141C82.6469 14.9377 82.2129 15.2532 81.708 15.4692C81.2032 15.6824 80.6529 15.7933 80.0601 15.7933C78.988 15.7933 78.1059 15.4778 77.4139 14.8609C76.7161 14.2412 76.3304 13.431 76.2538 12.419H84.3316L84.3543 12.0126Z" fill="white"/>
<path d="M100 16.2984C99.7561 16.5173 99.447 16.685 99.0896 16.8044C98.7266 16.9238 98.3493 16.9807 97.9579 16.9807C97.056 16.9807 96.3554 16.7334 95.8647 16.2444C95.3768 15.7526 95.1301 15.059 95.1301 14.1607V5.08972H96.432V7.20751H99.3704V8.31335H96.432V14.0925C96.432 14.6667 96.5794 15.1074 96.8659 15.403C97.1524 15.7043 97.5665 15.8578 98.1054 15.8578C98.3777 15.8578 98.6358 15.8152 98.8882 15.7242C99.1407 15.6418 99.3562 15.5223 99.5378 15.3603L100 16.2984Z" fill="white"/>
</svg>
